<svg width="15.000000" height="14.707031" viewBox="0 0 15 14.707" fill="none" xmlns="http://www.w3.org/2000/svg" xmlns:xlink="http://www.w3.org/1999/xlink">
	<desc>
			Created with Pixso.
	</desc>
	<defs/>
	<path id="search" d="M11.5691 10.569C12.4643 9.4552 13 8.04016 13 6.5C13 2.91016 10.0898 0 6.5 0C2.91016 0 0 2.91016 0 6.5C0 10.0898 2.91016 13 6.5 13C8.18958 13 9.72858 12.3553 10.8845 11.2986L14.2929 14.707L15 13.9999L11.5691 10.569ZM6.5 12C9.53757 12 12 9.53754 12 6.5C12 3.46246 9.53757 1 6.5 1C3.46243 1 1 3.46246 1 6.5C1 9.53754 3.46243 12 6.5 12Z" clip-rule="evenodd" fill="#1C2A39" fill-opacity="1.000000" fill-rule="evenodd"/>
</svg>
