<svg width="13.677063" height="17.000000" viewBox="0 0 13.6771 17" fill="none" xmlns="http://www.w3.org/2000/svg" xmlns:xlink="http://www.w3.org/1999/xlink">
	<desc>
			Created with Pixso.
	</desc>
	<defs/>
	<mask id="mask_1_422" fill="white">
		<path id="shop bag" d="M2.8385 3C2.8385 1.34314 4.1817 0 5.8385 0L7.8385 0C9.49536 0 10.8385 1.34314 10.8385 3L10.8385 5L11.0547 5C12.0991 5 12.9677 5.80365 13.0487 6.84491L13.6709 14.8449C13.7613 16.0071 12.8427 17 11.6769 17L2.00012 17C0.834412 17 -0.0842285 16.0071 0.00616455 14.8449L0.628357 6.84491C0.709351 5.80365 1.57794 5 2.62231 5L2.8385 5L2.8385 3ZM3.8385 5L9.8385 5L9.8385 3C9.8385 1.89545 8.94312 1 7.8385 1L5.8385 1C4.73395 1 3.8385 1.89545 3.8385 3L3.8385 5ZM10.8385 6L2.62231 6C2.10016 6 1.66583 6.40179 1.62537 6.92242L1.00311 14.9225C0.957947 15.5035 1.4173 16 2.00012 16L11.6769 16C12.2598 16 12.7191 15.5035 12.6739 14.9225L12.0517 6.92249C12.0112 6.40179 11.5769 6 11.0547 6L10.8385 6Z" clip-rule="evenodd" fill="" fill-opacity="1.000000" fill-rule="evenodd"/>
	</mask>
	<path id="shop bag" d="M2.8385 3C2.8385 1.34314 4.1817 0 5.8385 0L7.8385 0C9.49536 0 10.8385 1.34314 10.8385 3L10.8385 5L11.0547 5C12.0991 5 12.9677 5.80365 13.0487 6.84491L13.6709 14.8449C13.7613 16.0071 12.8427 17 11.6769 17L2.00012 17C0.834412 17 -0.0842285 16.0071 0.00616455 14.8449L0.628357 6.84491C0.709351 5.80365 1.57794 5 2.62231 5L2.8385 5L2.8385 3ZM3.8385 5L9.8385 5L9.8385 3C9.8385 1.89545 8.94312 1 7.8385 1L5.8385 1C4.73395 1 3.8385 1.89545 3.8385 3L3.8385 5ZM10.8385 6L2.62231 6C2.10016 6 1.66583 6.40179 1.62537 6.92242L1.00311 14.9225C0.957947 15.5035 1.4173 16 2.00012 16L11.6769 16C12.2598 16 12.7191 15.5035 12.6739 14.9225L12.0517 6.92249C12.0112 6.40179 11.5769 6 11.0547 6L10.8385 6Z" clip-rule="evenodd" fill="#1C2A39" fill-opacity="1.000000" fill-rule="evenodd" mask="url(#mask_1_422)"/>
	<path id="shop bag" d="M10.8385 4L10.8385 3C10.8385 2.68125 10.7888 2.37411 10.6967 2.08591C10.6471 1.93083 10.5853 1.78123 10.5124 1.63826C10.2235 1.07228 9.76031 0.610155 9.19352 0.322722C9.05546 0.252711 8.91126 0.193064 8.76193 0.144806C8.47103 0.050792 8.1607 0 7.8385 0L5.8385 0C5.51976 0 5.21263 0.0497111 4.92443 0.141804C4.76936 0.191356 4.61978 0.253179 4.47681 0.32613C4.20463 0.465022 3.95646 0.644254 3.74018 0.855944C3.72479 0.871007 3.70956 0.886234 3.6945 0.901623C3.48957 1.11098 3.31506 1.35022 3.17811 1.61221C3.09577 1.76974 3.027 1.93549 2.97338 2.1079C2.88572 2.38971 2.8385 2.68934 2.8385 3L2.8385 5L2.62231 5C2.43559 5 2.25449 5.02569 2.0825 5.07383C1.96079 5.1079 1.84364 5.15322 1.7323 5.20863C1.38976 5.37911 1.10216 5.64516 0.905571 5.97342C0.843301 6.07739 0.790163 6.18761 0.747304 6.30301C0.683991 6.47348 0.643109 6.65525 0.628357 6.84491L0.00616455 14.8449C-0.00934464 15.0443 0.00485007 15.2387 0.0449002 15.424C0.0773126 15.5739 0.126659 15.7179 0.190901 15.8537C0.278605 16.039 0.394072 16.2091 0.532108 16.3583C0.666901 16.504 0.823215 16.6297 0.996218 16.7304C1.13261 16.8097 1.27937 16.8734 1.43413 16.919C1.61329 16.9717 1.80318 17 2.00012 17L11.6769 17C11.8739 17 12.0638 16.9717 12.2429 16.919C12.594 16.8157 12.9039 16.6188 13.145 16.3583C13.2808 16.2114 13.3948 16.0443 13.482 15.8624C13.5483 15.7241 13.599 15.5772 13.6321 15.4241C13.6722 15.2388 13.6864 15.0443 13.6709 14.8449L13.0487 6.84491L13.0487 6.84447C13.0345 6.663 12.9964 6.48875 12.9377 6.32472C12.8911 6.19472 12.8315 6.07113 12.7606 5.95546C12.673 5.81269 12.5682 5.68196 12.449 5.56609C12.4281 5.54578 12.4067 5.52593 12.385 5.50655C12.2545 5.39031 12.1088 5.29103 11.9514 5.21196C11.8379 5.15495 11.7183 5.10845 11.594 5.07368C11.4222 5.02563 11.2412 5 11.0547 5L10.8385 5L10.8385 4ZM9.8385 5L9.8385 3C9.8385 2.45565 9.62104 1.96209 9.26823 1.60147Q9.26055 1.59361 9.25275 1.58582Q9.24592 1.57899 9.23901 1.5722C8.87822 1.21827 8.38386 1 7.8385 1L5.8385 1C5.30554 1 4.82126 1.20848 4.46277 1.54833C4.07829 1.91282 3.8385 2.42841 3.8385 3L3.8385 5L9.8385 5ZM3.8385 6L2.62231 6C2.10016 6 1.66583 6.40179 1.62537 6.92242L1.00311 14.9225C0.98053 15.213 1.08407 15.4824 1.26612 15.6791C1.44816 15.8759 1.70871 16 2.00012 16L11.6769 16C12.2598 16 12.7191 15.5035 12.6739 14.9225L12.0517 6.92249C12.032 6.66946 11.9194 6.44452 11.7488 6.28011C11.7395 6.27113 11.73 6.26233 11.7203 6.25372C11.543 6.0955 11.3093 6 11.0547 6L3.8385 6Z" clip-rule="evenodd" fill="#1C2A39" fill-opacity="1.000000" fill-rule="evenodd"/>
</svg>
