<svg width="12.000000" height="15.000000" viewBox="0 0 12 15" fill="none" xmlns="http://www.w3.org/2000/svg" xmlns:xlink="http://www.w3.org/1999/xlink">
	<desc>
			Created with Pixso.
	</desc>
	<defs/>
	<mask id="mask_1_428" fill="white">
		<path id="user" d="M6 8C8.20914 8 10 6.20917 10 4C10 1.79083 8.20914 0 6 0C3.79086 0 2 1.79083 2 4C2 6.20917 3.79086 8 6 8ZM6 7C7.65686 7 9 5.65686 9 4C9 2.34314 7.65686 1 6 1C4.34314 1 3 2.34314 3 4C3 5.65686 4.34314 7 6 7ZM0 13C0 10.7908 1.79086 9 4 9L8 9C10.2091 9 12 10.7908 12 13L12 15L0 15L0 13ZM4 10L8 10C9.65686 10 11 11.3431 11 13L11 14L1 14L1 13C1 11.3431 2.34314 10 4 10Z" clip-rule="evenodd" fill="" fill-opacity="1.000000" fill-rule="evenodd"/>
	</mask>
	<path id="user" d="M6 8C8.20914 8 10 6.20917 10 4C10 1.79083 8.20914 0 6 0C3.79086 0 2 1.79083 2 4C2 6.20917 3.79086 8 6 8ZM6 7C7.65686 7 9 5.65686 9 4C9 2.34314 7.65686 1 6 1C4.34314 1 3 2.34314 3 4C3 5.65686 4.34314 7 6 7ZM0 13C0 10.7908 1.79086 9 4 9L8 9C10.2091 9 12 10.7908 12 13L12 15L0 15L0 13ZM4 10L8 10C9.65686 10 11 11.3431 11 13L11 14L1 14L1 13C1 11.3431 2.34314 10 4 10Z" clip-rule="evenodd" fill="#1C2A39" fill-opacity="1.000000" fill-rule="evenodd" mask="url(#mask_1_428)"/>
	<path id="user" d="M6 9L4 9C3.55882 9 3.13432 9.07142 2.73744 9.20334C2.55157 9.26512 2.37176 9.34016 2.19913 9.42735C1.82672 9.61544 1.48772 9.86004 1.19341 10.1499Q1.18248 10.1607 1.17157 10.1716Q1.16065 10.1825 1.14988 10.1934C0.858259 10.4895 0.612436 10.8309 0.423893 11.206C0.338178 11.3765 0.264301 11.554 0.203342 11.7374C0.0714248 12.1343 0 12.5588 0 13L0 15L12 15L12 13C12 12.5577 11.9282 12.1322 11.7957 11.7345C11.7349 11.5521 11.6614 11.3756 11.5761 11.206C11.3876 10.8309 11.1417 10.4895 10.8501 10.1934Q10.8394 10.1825 10.8284 10.1716Q10.8175 10.1606 10.8066 10.1499C10.5123 9.86004 10.1733 9.61543 9.80083 9.42733C9.62821 9.34015 9.44842 9.26511 9.26256 9.20334C8.86568 9.07142 8.44118 9 8 9L6 9ZM1 14L11 14L11 13C11 12.1716 10.6642 11.4216 10.1213 10.8787C9.57842 10.3358 8.82842 10 8 10L4 10C3.17158 10 2.42158 10.3358 1.87869 10.8787C1.33579 11.4216 1 12.1716 1 13L1 14ZM4.73889 7.79714C5.13536 7.92875 5.55936 8 6 8C6.44064 8 6.86464 7.92875 7.26111 7.79714C7.44754 7.73526 7.62788 7.66003 7.801 7.57258C8.17336 7.3845 8.51231 7.13992 8.80659 6.85011Q8.81754 6.83932 8.82843 6.82843Q8.83934 6.81752 8.85012 6.80658C9.14174 6.51046 9.38756 6.16911 9.57611 5.79401C9.66137 5.62438 9.73492 5.44785 9.79569 5.26548C9.92823 4.86776 10 4.44227 10 4C10 3.55773 9.92823 3.13224 9.79569 2.73452C9.73492 2.55215 9.66137 2.37562 9.57611 2.20599C9.38756 1.83089 9.14174 1.48954 8.85012 1.19342Q8.83935 1.18249 8.82843 1.17157Q8.81753 1.16067 8.80659 1.14989C8.51229 0.860063 8.17332 0.615471 7.80094 0.427388C7.62829 0.340183 7.44845 0.265126 7.26256 0.203339C6.86568 0.0714236 6.44118 0 6 0C5.55882 0 5.13432 0.0714236 4.73744 0.203339C4.55154 0.265126 4.37171 0.340183 4.19906 0.427388C3.82668 0.615472 3.4877 0.860063 3.19341 1.14989C3.17879 1.16429 3.16428 1.1788 3.14988 1.19342C2.85826 1.48954 2.61244 1.83089 2.42389 2.20599C2.33818 2.37652 2.2643 2.55402 2.20334 2.73743C2.07142 3.13431 2 3.55881 2 4C2 4.44119 2.07142 4.86569 2.20334 5.26257C2.2643 5.44598 2.33818 5.62348 2.42389 5.79401C2.61244 6.16911 2.85826 6.51046 3.14988 6.80658Q3.16068 6.81754 3.17157 6.82843Q3.18245 6.83931 3.19341 6.85011C3.48769 7.13992 3.82664 7.3845 4.19899 7.57258C4.37211 7.66002 4.55246 7.73526 4.73889 7.79714ZM3.87869 6.12134C4.42158 6.66422 5.17158 7 6 7C6.82842 7 7.57842 6.66422 8.12131 6.12134C8.66421 5.57844 9 4.82844 9 4C9 3.17156 8.66421 2.42156 8.12131 1.87866C7.57842 1.33578 6.82842 1 6 1C5.17157 1 4.42158 1.33578 3.87868 1.87867C3.33579 2.42156 3 3.17157 3 4C3 4.82844 3.33579 5.57844 3.87869 6.12134Z" clip-rule="evenodd" fill="#1C2A39" fill-opacity="1.000000" fill-rule="evenodd"/>
</svg>
